<?xml version="1.0" encoding="UTF-8" standalone="no"?>
<!-- Created with Inkscape (http://www.inkscape.org/) -->

<svg
   width="340.75854mm"
   height="80.513626mm"
   viewBox="0 0 340.75854 80.513627"
   version="1.1"
   id="svg1"
   xml:space="preserve"
   inkscape:version="1.3.2 (091e20e, 2023-11-25)"
   sodipodi:docname="litejproradost-logo.svg"
   xmlns:inkscape="http://www.inkscape.org/namespaces/inkscape"
   xmlns:sodipodi="http://sodipodi.sourceforge.net/DTD/sodipodi-0.dtd"
   xmlns="http://www.w3.org/2000/svg"
   xmlns:svg="http://www.w3.org/2000/svg"><sodipodi:namedview
     id="namedview1"
     pagecolor="#ffffff"
     bordercolor="#eeeeee"
     borderopacity="1"
     inkscape:showpageshadow="0"
     inkscape:pageopacity="0"
     inkscape:pagecheckerboard="0"
     inkscape:deskcolor="#505050"
     inkscape:document-units="mm"
     inkscape:zoom="0.42"
     inkscape:cx="245.2381"
     inkscape:cy="435.71429"
     inkscape:window-width="1696"
     inkscape:window-height="985"
     inkscape:window-x="1180"
     inkscape:window-y="43"
     inkscape:window-maximized="0"
     inkscape:current-layer="layer1" /><defs
     id="defs1" /><g
     inkscape:label="Vrstva 1"
     inkscape:groupmode="layer"
     id="layer1"
     transform="translate(-35.138438,8.3522043)"><path
       style="fill:#000000;stroke-width:6.28675"
       d="m 154.80601,71.038487 c -0.4104,-0.618866 0.14896,-1.730437 1.24609,-2.476146 1.67672,-1.139718 2.0733,-3.00063 2.5139,-11.796436 0.42159,-8.416186 0.82776,-10.443249 2.09251,-10.443249 2.379,0 2.84007,20.242599 0.53571,23.520138 -1.72057,2.447196 -5.1345,3.086188 -6.38821,1.195693 z m 24.68506,-11.495124 c 0,-12.78857 0.66942,-15.047732 3.75213,-12.663446 1.18755,0.918533 1.86162,0.938892 2.77904,0.08391 0.66615,-0.620816 2.72297,-1.128734 4.57078,-1.128734 8.63732,0 11.98021,13.029529 4.68257,18.251163 -2.05143,1.467847 -6.87218,1.588905 -9.57574,0.240466 -1.8625,-0.928955 -2.02376,-0.657109 -2.02376,3.412672 0,3.771997 -0.30741,4.422028 -2.09247,4.422028 -1.98473,0 -2.09255,-0.650031 -2.09255,-12.618095 z m 14.04974,0.360357 c 3.60112,-3.356013 0.7785,-10.168371 -4.21312,-10.168371 -2.50672,0 -5.6516,3.255412 -5.6516,5.850295 0,4.740735 6.4035,7.543731 9.86472,4.318076 z M 88.93882,64.100688 c -0.299246,-0.72679 -0.410145,-6.340484 -0.246439,-12.47488 0.243989,-9.140848 0.580832,-11.153455 1.867057,-11.153455 1.26215,0 1.671796,2.004272 2.092511,10.238021 l 0.523118,10.238016 6.082244,0.294282 c 5.063709,0.244993 6.025489,0.571527 5.743309,1.950097 -0.27499,1.343498 -1.77051,1.709926 -7.928324,1.942598 -5.641697,0.213195 -7.729016,-0.0522 -8.133485,-1.034665 z m 21.15072,0.585358 c -1.15385,-1.075315 -0.79707,-17.703467 0.39455,-18.389821 2.62033,-1.509227 4.13918,1.735155 4.13918,8.841484 0,3.912555 -0.28579,7.807778 -0.63506,8.656056 -0.65264,1.585 -2.66195,2.044862 -3.8987,0.892281 z m 12.4554,-0.882187 c -1.09738,-1.022708 -1.64411,-3.32143 -1.64411,-6.912809 0,-4.383007 -0.43649,-5.722774 -2.35406,-7.226173 l -2.35408,-1.845582 2.29527,-0.603965 c 1.27284,-0.334897 2.438,-1.532536 2.61564,-2.688478 0.47761,-3.107557 3.76123,-3.264606 4.58142,-0.21909 0.42637,1.583225 1.40089,2.502415 2.65302,2.502415 2.62986,0 2.54255,2.627066 -0.11333,3.412669 -1.75424,0.518912 -2.09252,1.475281 -2.09252,5.916008 0,4.647025 0.25683,5.297059 2.09252,5.297059 2.48298,0 2.80839,2.460493 0.43755,3.308354 -2.66814,0.954184 -4.36406,0.693473 -6.11723,-0.940378 z m 14.72562,-0.858846 c -2.27661,-1.966284 -2.76842,-3.25003 -2.76842,-7.226191 0,-4.202161 0.4214,-5.165585 3.21904,-7.359425 1.89775,-1.488168 4.50747,-2.524298 6.35802,-2.524298 6.58853,0 12.73314,9.957027 6.90145,11.183458 -1.29473,0.272281 -4.67885,0.609752 -7.52028,0.749865 -5.03574,0.248387 -5.11694,0.300508 -3.21534,2.063872 1.58764,1.472257 2.89041,1.692931 6.99716,1.185231 4.08464,-0.504951 5.04628,-0.345268 5.04628,0.837996 0,4.027359 -10.71628,4.804791 -15.01791,1.089492 z m 10.83289,-11.259619 c -1.26273,-2.198872 -6.13828,-2.664895 -8.16078,-0.780041 -2.25741,2.103777 -1.33683,2.730138 4.01258,2.730138 4.94387,0 5.19916,-0.12001 4.1482,-1.950097 z m 56.14902,13.000652 c -1.15386,-1.075315 -0.7971,-17.703467 0.39482,-18.389821 0.60037,-0.345961 1.7777,-0.09878 2.61567,0.549397 1.18499,0.916521 1.85948,0.918541 3.03529,0.0087 2.00662,-1.551986 6.33517,-0.916201 6.33517,0.930507 0,0.928616 -1.33689,1.640556 -3.66194,1.950095 -3.63649,0.484145 -3.66377,0.524757 -3.9331,5.850297 -0.14898,2.949526 -0.5111,6.350006 -0.80463,7.556637 -0.51362,2.112539 -2.53124,2.894963 -3.98101,1.543821 z m 18.85395,-2.084703 c -2.1544,-2.095654 -2.81137,-3.708211 -2.81137,-6.900348 0,-10.473548 14.58859,-13.727638 19.37765,-4.32232 3.41733,6.711476 -1.4549,13.957409 -9.38517,13.957409 -3.42189,0 -4.97956,-0.593217 -7.18111,-2.734741 z m 11.2383,-2.697679 c 3.60067,-3.355619 1.0272,-10.16837 -3.84107,-10.16837 -3.0815,0 -6.02359,2.774718 -6.02359,5.680878 0,5.064288 6.213,7.890627 9.86466,4.487492 z m 22.24232,4.802703 c -1.16917,-1.089564 -0.83245,-17.715952 0.37279,-18.410142 0.60037,-0.345961 1.77762,-0.09878 2.6156,0.549397 1.18497,0.916521 1.85955,0.918541 3.03536,0.0087 2.00662,-1.551986 6.3351,-0.916201 6.3351,0.930507 0,0.904204 -1.19826,1.584277 -3.13875,1.78136 -4.50909,0.45799 -5.16984,1.453604 -5.75444,8.670521 -0.48155,5.948895 -1.66139,8.150766 -3.46566,6.469287 z m 18.03408,-1.886464 c -1.98707,-1.971203 -2.53646,-3.573366 -2.53646,-7.397293 0,-4.139203 0.44637,-5.238794 2.93554,-7.234314 3.10029,-2.485251 6.89241,-2.999253 10.14792,-1.375515 1.31035,0.653551 2.17521,0.653551 2.60862,0 0.35647,-0.537705 1.32681,-0.977682 2.15597,-0.977682 1.20624,0 1.50765,1.840419 1.50765,9.205423 0,9.260065 -0.86035,11.487327 -3.61459,9.357109 -0.98329,-0.760533 -1.64233,-0.786773 -2.10837,-0.08393 -0.37281,0.562285 -2.45145,1.0224 -4.61893,1.0224 -2.88367,0 -4.62137,-0.675028 -6.47735,-2.516182 z m 10.99008,-2.916239 c 3.71895,-3.465801 0.99948,-10.16837 -4.12565,-10.16837 -2.5846,0 -5.73898,3.215545 -5.73898,5.850294 0,4.740733 6.40348,7.543727 9.86463,4.318076 z m 13.62855,3.039113 c -3.71199,-3.459368 -3.64927,-10.86046 0.12434,-14.655031 2.44372,-2.457374 3.16827,-2.654824 7.84692,-2.138418 l 5.15458,0.568951 v -3.925751 c 0,-3.213433 0.33256,-3.866379 1.83095,-3.59854 1.6109,0.287872 1.86614,1.822012 2.12389,12.766505 0.25337,10.762223 0.0629,12.521562 -1.41336,13.049529 -0.93857,0.335648 -2.0244,0.130717 -2.41312,-0.455411 -0.45641,-0.688216 -1.25282,-0.74383 -2.24852,-0.157058 -2.97229,1.751764 -8.32394,1.044355 -11.00556,-1.454799 z m 12.04685,-4.675805 c 1.43853,-2.407793 1.43853,-2.954975 -3.9e-4,-5.36277 -2.99467,-5.011188 -10.42952,-3.351914 -10.42952,2.327613 0,1.337642 0.50232,3.306399 1.11573,4.375021 1.68377,2.932018 7.23936,2.132834 9.31418,-1.339864 z m 12.50716,4.218967 c -6.63899,-6.18717 -2.13257,-16.65084 7.17105,-16.65084 6.89989,0 11.9267,6.022255 10.24357,12.272082 -1.97552,7.335349 -11.63571,9.764329 -17.41462,4.378758 z m 11.5287,-2.444583 c 0.68306,-0.766988 1.09384,-3.062551 0.91283,-5.101246 -0.27159,-3.055832 -0.84401,-3.874482 -3.26149,-4.662087 -3.56804,-1.162451 -6.07795,0.06097 -7.44206,3.626666 -2.03018,5.307526 6.03005,10.359594 9.79072,6.136667 z m 11.30784,4.241578 c -1.89073,-1.026317 -2.57415,-4.797151 -0.86945,-4.797151 0.52872,0 2.33276,0.733462 4.00879,1.629909 3.31239,1.771662 6.53856,1.24241 6.53856,-1.072639 0,-0.855669 -1.75175,-1.943151 -4.25676,-2.642588 -4.14814,-1.158226 -7.25207,-3.905843 -7.25207,-6.419551 0,-2.361693 4.11957,-5.145815 7.61413,-5.145815 4.49245,0 8.63225,2.592394 7.02393,4.398434 -0.95482,1.072213 -1.67152,1.021619 -4.12624,-0.291268 -2.50257,-1.338524 -3.23711,-1.382807 -4.66164,-0.281017 -2.11109,1.632801 -0.70413,3.49985 3.34754,4.442109 6.31974,1.469756 8.61432,6.814372 4.17078,9.7149 -2.62438,1.713126 -8.78082,1.961092 -11.53757,0.464716 z m 21.39594,-0.116925 c -0.70795,-0.659738 -1.2555,-3.820588 -1.2555,-7.247158 0,-5.220766 -0.29484,-6.164326 -2.0925,-6.696046 -1.15089,-0.340425 -2.09253,-1.196352 -2.09253,-1.902084 0,-0.705733 0.94164,-1.512628 2.09253,-1.793106 1.25195,-0.305095 2.0925,-1.329986 2.0925,-2.551342 0,-2.795752 2.95965,-2.60734 4.13062,0.262972 0.51741,1.267384 1.99529,2.561498 3.28496,2.875798 1.98396,0.483514 2.13761,0.804119 0.9984,2.083382 -0.74053,0.831561 -1.99497,1.511926 -2.78768,1.511926 -1.04948,0 -1.44129,1.457751 -1.44129,5.362769 0,4.550233 0.29045,5.36277 1.91816,5.36277 2.65764,0 3.51187,1.039544 2.12969,2.591673 -1.44689,1.624763 -5.30049,1.701243 -6.97736,0.13843 z M 36.562856,61.897471 C 32.388697,55.96046 37.848,36.49519 46.96059,24.824123 55.667332,13.672853 69.011229,4.1927933 83.084542,-0.83983407 98.837187,-6.4729963 123.61561,-9.5857406 139.21029,-7.8905306 c 4.2287,0.4596846 5.77624,0.8600435 3.66189,0.947373 -7.14038,0.2949106 -22.59152,3.8201736 -29.43869,6.71660087 C 97.101958,6.6818664 84.389041,17.290145 72.795121,33.684078 60.373562,51.248295 54.064142,58.147116 46.616745,62.307911 41.734206,65.035742 38.681683,64.911125 36.562856,61.897448 Z m 74.954964,-18.74373 c 0.0403,-2.071788 2.38802,-5.119011 3.94378,-5.119011 2.19767,0 2.24594,1.751716 0.11775,4.273121 -2.49181,2.952244 -4.10919,3.289089 -4.06155,0.84589 z m 47.39954,-0.796827 c -0.872,-2.117765 1.34176,-4.109357 2.92633,-2.632631 1.33924,1.248095 0.5096,4.160749 -1.18518,4.160749 -0.61157,0 -1.39507,-0.687655 -1.74115,-1.528118 z M 193.21152,29.227599 C 176.01241,17.616566 148.16489,8.3324159 121.94708,5.4685837 l -10.98567,-1.1999899 5.30598,-2.5460939 c 12.97541,-6.2263106 29.9753,-7.4924878 43.55538,-3.2440551 20.03205,6.2668795 37.21718,19.4499812 41.07843,31.5121322 1.02719,3.209001 -2.29426,2.879437 -7.68968,-0.762978 z"
       id="path4"
       inkscape:label="path4" /><text
       xml:space="preserve"
       style="font-size:3.175px;opacity:0;fill:#000000;fill-opacity:1;stroke:#000000;stroke-width:0.3;stroke-linecap:round;stroke-linejoin:round;stroke-dasharray:none;stroke-opacity:1"
       x="51.656746"
       y="83.154762"
       id="text4"><tspan
         sodipodi:role="line"
         id="tspan4"
         style="stroke-width:0.3"
         x="51.656746"
         y="83.154762">L</tspan></text></g></svg>
